<svg width="32" height="32" viewBox="0 0 32 32" fill="none" xmlns="http://www.w3.org/2000/svg">
    <rect width="32" height="32" fill="#1F2937" stroke="#374151" stroke-width="1"/>
    <circle cx="16" cy="16" r="10" fill="#F87171"/>
    <circle cx="12" cy="12" r="2" fill="#EF4444"/>
    <circle cx="20" cy="12" r="2" fill="#EF4444"/>
    <path d="M12 20C12 22 14 24 16 24C18 24 20 22 20 20" stroke="#374151" stroke-width="2" fill="none"/>
    <path d="M6 8L10 10L8 14L6 12L6 8Z" fill="#F87171"/>
    <path d="M26 8L22 10L24 14L26 12L26 8Z" fill="#F87171"/>
    <path d="M8 22L10 26L14 24L12 22L8 22Z" fill="#F87171"/>
    <path d="M24 22L22 26L18 24L20 22L24 22Z" fill="#F87171"/>
  </svg>